<svg xmlns="http://www.w3.org/2000/svg" viewBox="0 0 1681.5 1400"><defs><style>.cls-1{fill:#f6e3d3;}.cls-2{fill:#fff;}.cls-3{fill:#eb9e94;}.cls-4{fill:#7764a6;}.cls-5{fill:#282444;}.cls-6{fill:#ffbcb0;}.cls-7{fill:#d87e77;}.cls-8{fill:#fccc44;}.cls-9{fill:#3a4a1d;}.cls-10{fill:#516123;}.cls-11{fill:#9fbc50;}.cls-12{fill:#1e1735;}.cls-13{fill:#ec7d40;}.cls-14{fill:#f79556;}.cls-15{fill:#d66730;}.cls-16{fill:#e30613;}</style></defs><g id="&#x56FE;&#x5C42;_2" data-name="&#x56FE;&#x5C42; 2"><g id="&#x592E;&#x94CB;_1" data-name="&#x592E;&#x94CB; 1"><path class="cls-1" d="M829.36,1371.4c-60.23-23.08-51-43.7-201-109-133.18-58-449.11,62.92-577.09-347.94C-131.55,327.39,454.39-134,1134.51,81.1,1273.34,125,1689.32,386,1628.3,853.05c-31.51,241.25-204,448.23-436.35,515.08C1086.33,1398.52,955.64,1419.8,829.36,1371.4Z"></path><rect class="cls-2" x="597.44" y="507.59" width="257.84" height="487.12"></rect><rect class="cls-2" x="597.44" width="257.84" height="487.12"></rect><rect class="cls-2" x="875.74" y="507.59" width="257.84" height="487.12"></rect><rect class="cls-2" x="875.74" width="257.84" height="487.12"></rect><rect class="cls-2" x="1154.05" y="507.59" width="257.84" height="487.12"></rect><rect class="cls-2" x="1154.05" width="257.84" height="487.12"></rect><path class="cls-3" d="M954.22,1007a194.41,194.41,0,0,0-11.24,22.5h171c2.68-14.85,3.36-27.92,1.38-38-5.37-27.35-18-37.61-23.88-41.79-24.58-17.44-58.07-6.46-66.86-3.58C982.41,960,959.87,997.35,954.22,1007Z"></path><path class="cls-3" d="M482.89,1029.53H921.5c29.36-48.7,60.65-87.49,96-157.42,7.5-14.85,15.21-36.4,10.83-62.08-3.95-23.14-17-39.39-23.88-45.37C963.13,728.88,877.36,708.05,786,700.31c-70.26-5.95-109.43-4.83-167.58,0-91.39,7.6-177.15,28.57-218.47,64.35-6.91,6-19.92,22.23-23.88,45.37-4.38,25.68,3.33,47.23,10.84,62.08C422.23,942,453.52,980.83,482.89,1029.53Z"></path><path class="cls-3" d="M461.41,1029.53a194.41,194.41,0,0,0-11.24-22.5c-5.66-9.68-28.2-47-70.45-60.89-8.79-2.88-42.27-13.86-66.86,3.58C307,953.9,294.35,964.16,289,991.51c-2,10.1-1.29,23.17,1.39,38Z"></path><path class="cls-4" d="M795.38,467.62c0,13.91,6.11,41.52,11.28,45.52,6.28,4.85,15.64,2.76,17.18,2.17,9.13-3.51,16-21.35,16-47.69s-6.44-45.73-16-47.69c-.92-.19-13.52-3.39-18.59,3.36C797,434.3,795.38,452.11,795.38,467.62Z"></path><ellipse class="cls-5" cx="811.09" cy="467.64" rx="16.01" ry="47.69"></ellipse><path class="cls-6" d="M948.14,154.53h386.34a45.63,45.63,0,0,1,45.63,45.63V381.71a45.63,45.63,0,0,1-45.63,45.63H1052.26l-52,47.54V427.34h-52.1a45.62,45.62,0,0,1-45.62-45.63V200.16A45.62,45.62,0,0,1,948.14,154.53Z"></path><path class="cls-7" d="M1223.37,366.93a10,10,0,1,1-10-10A10,10,0,0,1,1223.37,366.93Z"></path><circle class="cls-7" cx="1254.98" cy="366.93" r="10.04" transform="translate(108.12 994.88) rotate(-45)"></circle><circle class="cls-7" cx="1296.63" cy="366.93" r="10.04" transform="translate(120.32 1024.33) rotate(-45)"></circle><line class="cls-2" x1="1074.8" y1="222.41" x2="1306.19" y2="222.41"></line><path class="cls-2" d="M1306.19,232.5H1074.8a10.09,10.09,0,1,1,0-20.18h231.39a10.09,10.09,0,0,1,0,20.18Z"></path><line class="cls-2" x1="969.58" y1="270.6" x2="1306.19" y2="270.6"></line><path class="cls-2" d="M1306.19,280.69H969.58a10.09,10.09,0,0,1,0-20.18h336.61a10.09,10.09,0,0,1,0,20.18Z"></path><line class="cls-2" x1="969.58" y1="318.8" x2="1306.19" y2="318.8"></line><path class="cls-2" d="M1306.19,328.89H969.58a10.09,10.09,0,0,1,0-20.18h336.61a10.09,10.09,0,0,1,0,20.18Z"></path><line class="cls-2" x1="969.58" y1="366.99" x2="1173.6" y2="366.99"></line><path class="cls-2" d="M1173.6,377.08h-204a10.09,10.09,0,0,1,0-20.18h204a10.09,10.09,0,0,1,0,20.18Z"></path><path class="cls-8" d="M362.2,744.38l-40.55-214a6,6,0,0,0-5.93-4.91H120.1a6,6,0,0,0-5.93,4.91l-40.55,214a6,6,0,0,0,5.93,7.15H356.27A6,6,0,0,0,362.2,744.38Z"></path><path class="cls-5" d="M229.3,810.13c-2.51-23.56,12.56-45.53,16.94-51.35a.93.93,0,0,0-.75-1.49H190.33a.93.93,0,0,0-.75,1.49c4.38,5.82,19.45,27.79,16.94,51.35-5.05,47.55-44.93,89.73-44.93,128.25,0,17.92,9.54,45.93,12.57,55.53a3.78,3.78,0,0,0,3.6,2.64h80.3a3.78,3.78,0,0,0,3.6-2.64c3-9.6,12.57-37.61,12.57-55.53C274.23,899.86,234.35,857.68,229.3,810.13Z"></path><path class="cls-4" d="M352.66,901.94c-3.69-6.84-9.92-11.23-18-12.7a29.7,29.7,0,0,0-13.71.53q.18-7.18.08-14.41a1.34,1.34,0,0,0-1.34-1.31H219.84a1.33,1.33,0,0,0-1.34,1.31c-.77,50.93,9.91,102.18,19,119.77a2.63,2.63,0,0,0,2.33,1.42H299.7a2.61,2.61,0,0,0,2.32-1.42c2.65-5.14,5.43-13.16,8-23.19,12.59-4.56,33.79-17.82,43.33-40.09C356.77,923.93,357.86,911.61,352.66,901.94ZM344.4,928c-6.8,15.87-21.06,26.76-31.59,32.14a396.79,396.79,0,0,0,7.68-59.77,18.81,18.81,0,0,1,12.4-1.53c5.15.93,8.92,3.53,11.17,7.72C347.71,913.34,346.79,922.43,344.4,928Z"></path><path class="cls-9" d="M1416,862.92c-14.79-22.08-3.64-61.23,31.77-79.25,8.34-4.24,19.58-12.34,23.33-23.56,1.08-3.24.12-6.13,1-6.07,1,.07,1.34,7,1.43,8.92.63,14.47-2.57,26.36-3.93,33.2-4.51,22.69,2.86,52.57-17.74,72.83C1437,883.57,1423.35,873.89,1416,862.92Z"></path><path class="cls-9" d="M1384.28,774.25c.78.07-1,1.08-.16,3.62,1.13,3.6,4.13,5.75,6,7.74,6.52,7.14,8,16.31,7.51,25.69-.33,6.85-5.57,16.77-10.47,13.34-23.43-16.46-7.23-39.84-5.33-43.95C1384.1,775.68,1383.28,774.15,1384.28,774.25Z"></path><path class="cls-10" d="M1405.66,899c11-10.88-3.52-72.15-53.2-102.35-5.13-3.13-13.54-9-15.12-7.84-.78.61,4.62,1.59,3,6.78-17.92,57.09,42,57.09,45.12,93.59C1386.36,900,1399.47,905.12,1405.66,899Z"></path><path class="cls-10" d="M1528.32,802.47c-3.28,3-13.36,1.86-22.77,6-8.8,3.85-12.58,12.61-16.48,25.19-6.68,21.61-25.72,54.63-52.4,54.87-43.16.38-4.1-48.67,34.48-75.19,16.66-11.45,39.58-11.67,49.87-11.8C1527.12,801.45,1529.84,801.06,1528.32,802.47Z"></path><path class="cls-10" d="M1412.44,754.39c3.29-1.58-1.11,11.48,15.35,28.21,35.13,35.69,27.87,107.76-8.92,111.38-14.62,1.44-69-56.78-10.36-125C1415.44,761,1411.22,755,1412.44,754.39Z"></path><path class="cls-11" d="M1451.71,808.76c.21-2.51,9,23.32,10,36,2.26,27.41-1.29,42.49-11.93,53.9-12.39,13.29-33.43,18.74-45.91,6.78-11.15-10.68-11.78-29.63-2.14-42.84,6.88-9.42,9.23-9.8,28.2-30C1441.66,820.1,1450.73,820.36,1451.71,808.76Z"></path><path class="cls-3" d="M1476.89,894.3a6.67,6.67,0,0,0-6.64-6.11h-93.62a6.67,6.67,0,0,0-6.64,6.11l-4.17,46.92v6.72c0,25.56,20.72,48.61,46.27,48.61h22.69c25.56,0,46.27-23,46.27-48.61v-6.72Z"></path><path class="cls-5" d="M973.79,901c-1.1-15.43-73.14-41.65-104.91-41.65-17,0-20.06-157.37-51-240.15-15.74-42.16-38.12-77.54-78.77-50.11-36.91,24.89-24.95,98.1-15.82,148.11,11.31,61.92,31.34,159.47,54.51,188.43,12.34,15.43,45.48,32.08,103.37,40.12C936.76,953.44,975.33,922.58,973.79,901Z"></path><path class="cls-5" d="M623,531c-11.82,1.09-39.4,4.05-69.2,17.3-116.77,51.9-114,148.7-116.77,179.48-5.07,56.35-8.73,110.29-6.49,138.39a179.18,179.18,0,0,1,0,32.44c-2.05,22.27-7.48,34.43-10.81,47.57-5.39,21.25-15.22,76,2.16,88.86,20.95,15.5,36.89-15.33,106-24,40.71-5.1,55.9,5.25,136.36,17.3,68.08,10.2,82.74-98.07,86.37-141.83,3.39-41,14.16-80.31,15.14-126.31,2.16-101.63,28.93-127.68,21.62-140.55-4-7.07-56.58-33.13-82.17-56.22C700.06,558.81,671.41,526.56,623,531Z"></path><path class="cls-12" d="M761.43,792.67a234.07,234.07,0,0,1-.84-32.43c.09-5.41.66-10.8,1.07-16.2.6-5.39,1.26-10.77,2.12-16.13.43-2.68.91-5.35,1.46-8s1-5.33,1.68-8,1.28-5.28,2-7.89l1.06-3.93,1.22-3.89c3.14-10.4,7.39-20.35,11.66-30.27-.74,5.39-2.08,10.64-3.22,15.89s-2.42,10.46-3.55,15.68-2.25,10.43-3.17,15.68q-.76,3.91-1.46,7.86c-.49,2.61-.9,5.25-1.3,7.88-1.78,10.51-3.19,21.09-4.55,31.71S763.09,782,761.43,792.67Z"></path><path class="cls-13" d="M605.74,544c-.08-16.4,9.73-20.54,23.78-56.22,19.16-48.62,23.79-93,23.79-121.09,0-4.07,9.89-.84,23.79,10.81s39.06,36.38,47.57,77.85c11.1,54.06-7,130.17-47.57,136.23C647.42,596,605.86,569.68,605.74,544Z"></path><path class="cls-14" d="M680.05,477s-7,6.73-12.81,2.16c-9.8-7.76-10.44-26.34-10.61-30.27-.24-5.21-.43-19.89,8.48-26,12.74-8.65,14.81,6.63,17,6.49s4.52-4.61,4.25-8.65c-.41-5.92-6.21-8.74-10.61-13-10.46-10.05-12.08-27.13-10.62-36.76,2.74-18,19-28.35,25.47-32.43,31-19.69,67.78-7.25,76.4-4.33,9.82,3.33,33.09,11.2,48.81,34.6,12.05,17.93,17.86,35.83,19.18,51.9,1.35,16.27-1.22,37.6-10.69,49.73-1.52,1.94-9.89,18-10.61,23.79a84.47,84.47,0,0,1-4.24,26,146.37,146.37,0,0,1-31.84,54.06c-12.4,12.82-19.23,14.64-23.34,15.13-2.09.26-8.69.8-19.1-4.32-9.53-4.69-54.12-33.52-57.3-73.52C676.81,498.52,680.05,477,680.05,477Z"></path><path class="cls-12" d="M839.24,373.78c-17.43-26.61-41.5-42.45-47.54-46-38.35-22.72-84.41-27.31-93-15.13-1,1.46-3.41,5.85-8.65,8.65-6,3.22-11.11,1.77-15.14,2.16-14.35,1.37-28.68,27.37-28.11,51.9.73,31.07,19.32,50.06,36.73,59.24a13.67,13.67,0,0,1,6.24,17.1c-4,10.16-10.33,23.55-21.34,40.43-17.49,26.81,18.08,83.44,25.95,93a102,102,0,0,0,38.92,28.11c10.81,4.33,19.42,6.42,25.95,2.16,23.25-15.16,29.62-49.93,29.34-54.59a1.32,1.32,0,0,1,.27-.92c2.44-3.23,5-6.88,7.49-10.86a1.59,1.59,0,0,0,.12-1.45,23.93,23.93,0,0,0-11.27-12.19c-14.41-7.63-32.82-3.63-44.43,4.5a16.16,16.16,0,0,1-20.95-2.36c-12.79-14.51-21.34-36.06-19-67,3.25-42.16,24.87-66,38.93-69.19,2.12-.49,2.71,1.43,6.48,4.32,9.45,7.24,18.5,10,28.11,13,3.25,1,44.05,10.22,60.55-2.16,8.65-6.49,11.56,5,13,4.33C850,419.69,854.41,397,839.24,373.78ZM740.81,551.59c6.35-1.3,15.22.67,25-1.11,9.43-1.72,9.7-4.87,13-2.16,1,.85,3.24,5.4,6.49,8.65.74.74,1.52,1.27,2.08,1.91a1.43,1.43,0,0,1-.32,2.19c-4,2.63-18,7.79-38.52-1.94-1.51-.71-5.41-3.15-8.1-4.8A1.5,1.5,0,0,1,740.81,551.59Z"></path><path class="cls-12" d="M793.74,479.53a16.1,16.1,0,0,1-8.16-.87,23,23,0,0,1-7-4.34c-.93-.86-1.64-1.23-2.34-1.9-.34-.31-.76-.54-1.14-.83a8.39,8.39,0,0,0-1.17-.86,18.69,18.69,0,0,0-5.63-2.75,41.6,41.6,0,0,0-6.7-1.3c-2.31-.34-4.71-.49-7.12-.65l-7.35-.5a36.88,36.88,0,0,1-7.42-1.12l.13-.85c4.81-.1,9.56-1.12,14.46-1.86a57.48,57.48,0,0,1,15.35-.5,34.71,34.71,0,0,1,8.19,1.9,18.6,18.6,0,0,1,3.88,2.18,21.5,21.5,0,0,1,3.07,3c1.53,2,2.59,3.56,4,5.24s3.21,3.25,5.13,5.17Z"></path><path class="cls-12" d="M780.89,485.61a18,18,0,0,0-8.66-1.11A85.89,85.89,0,0,1,763,485a20.85,20.85,0,0,1-10-2.64,16.14,16.14,0,0,1-6.73-7.59,66.68,66.68,0,0,0,8.66,2.87,43.86,43.86,0,0,0,8.29.88,48.3,48.3,0,0,1,9.5.89,12.81,12.81,0,0,1,2.52.83,11.39,11.39,0,0,1,2.37,1.3,12.08,12.08,0,0,1,2,1.82A11.75,11.75,0,0,1,780.89,485.61Z"></path><path class="cls-13" d="M675.25,922.17c7.15-6.82,17.24-6.28,23.39-5.4,37.92,5.44,46.15,5.33,57.94.93,6.07-2.26,25.16-10.61,35.64-9.83C814.9,909.55,903,949.21,903.83,960c0,0,.67,8.53-2.91,10a15.75,15.75,0,0,0-1.45.62c-2.05,1.57,2.13,5-1.05,8.75-1.29,1.52-3.34,1.92-6.75,2.27-6.94.69-12.44-1.24-17.37-.37-3.61.64-4.1,2.1-8.35,4.13,0,0-4.29,3.41-13.65,2.8-2.65-.17-5.64.16-25.08-10.16-19.9-10.57-53.32-16.61-53.19-14.88s37.28,10.93,46.44,17.15a5.87,5.87,0,0,1,2.13,5c-.47,3.26-3.21,3.52-6.62,4.08-9.84,1.62-33.42-4.9-58-9.4a131.19,131.19,0,0,0-38.32-2.18c-16,1.57-20.74,1.27-31,2.44C663.76,983.1,642.36,953.57,675.25,922.17Z"></path><path class="cls-15" d="M872.5,980.47a2.53,2.53,0,0,0,1.22-4.61,171.72,171.72,0,0,0-23.93-13.92c-15.55-7.65-37.93-15.21-54-20.2a2.52,2.52,0,0,0-1.5,4.82c15.86,4.94,38,12.4,53.23,19.91A166.57,166.57,0,0,1,870.88,980,2.6,2.6,0,0,0,872.5,980.47Z"></path><path class="cls-15" d="M891,973.23a2.56,2.56,0,0,0,1.77-.94,2.52,2.52,0,0,0-.39-3.55A170.69,170.69,0,0,0,869.67,953c-14.9-8.86-36.6-18.17-52.19-24.41a2.52,2.52,0,1,0-1.88,4.68c15.42,6.18,36.87,15.37,51.49,24.07a166.85,166.85,0,0,1,22.18,15.37A2.53,2.53,0,0,0,891,973.23Z"></path><path class="cls-5" d="M712.29,908.17c-37.81-2.56-62.14-14.73-102.5-29.35a175.79,175.79,0,0,0-33.63-7.8c-.59-2.25-.77-6-.18-12.36,1.24-13.29,4.88-41.37,4.26-69-.13-10.68,5.17-58.1,9.34-75.38,1.55-6.41,3.13-37-3.92-64.94-2.32-9.17-11.17-44.41-43.85-49.73-44.87-7.3-64.6,24.28-71.66,35.66-15.48,25-19,48.95-22.16,83.72,0,0-10.15,71.43,17.68,187.8,8.2,34.3,23.27,58.51,30.77,63.4.23.15.46.27.69.41l.15-.41c17.56,12.2,70.85,4.57,150.76,10.67,31.2,2.38,57.78,10.21,55.44-2.55-7.4-40.26,8-66.49,18.56-63.28,1.74.53,1,1.42,1.81,1.42,1.55,0,1.52-.4,1.55-1.54C725.49,910.66,722,908.83,712.29,908.17Z"></path><path class="cls-12" d="M713.83,908.17a162.29,162.29,0,0,1-17.75-1c-3-.26-5.9-.75-8.85-1.14-2.92-.55-5.88-1-8.78-1.68-11.69-2.4-23.06-6.08-34.3-9.81s-22.29-7.85-33.42-11.62a150.12,150.12,0,0,0-16.6-4.52,169.12,169.12,0,0,0-17-2.84l-3.14-.36-.74-3a31.33,31.33,0,0,1-.71-8.21c.06-2.49.26-5,.48-7.29l1.35-13.89c.86-9.21,1.63-18.39,2.17-27.57.23-4.59.45-9.18.56-13.76.07-2.3.07-4.58.1-6.87l0-3.45v-1.75l0-1.92c.23-4.9.72-9.49,1.21-14.18s1-9.3,1.63-13.94c1.15-9.27,2.64-18.49,4.25-27.72.85-4.61,1.66-9.22,2.77-13.83.26-1.15.58-2.31.87-3.47l.22-.86.17-.72c.12-.45.2-1,.3-1.55.37-2.16.62-4.43.83-6.69a220.19,220.19,0,0,0,.6-27.57,203,203,0,0,0-2.88-27.64,159,159,0,0,1,6,27.36,188.65,188.65,0,0,1,1.67,28.15c-.06,2.38-.15,4.74-.4,7.19-.07.62-.12,1.21-.24,1.89l-.32,1.84c-.2,1.11-.43,2.21-.6,3.34-.75,4.49-1.4,9.07-2,13.64-1.18,9.16-2.05,18.38-3,27.57-.43,4.61-.86,9.21-1.2,13.81s-.69,9.24-.76,13.63v1.57l0,1.73.07,3.52c0,2.36,0,4.72,0,7.08,0,4.71-.21,9.41-.43,14.1s-.56,9.38-.92,14-.86,9.32-1.34,14l-1.49,13.85c-.24,2.31-.43,4.47-.5,6.63a23.33,23.33,0,0,0,.34,5.64l-3.88-3.39A172.88,172.88,0,0,1,596.1,870a156.63,156.63,0,0,1,17.41,5.3c11.06,4.29,22,8.85,32.88,13.27s21.81,8.71,33,12.14A220.33,220.33,0,0,0,713.83,908.17Z"></path><path class="cls-12" d="M449.53,719c-.23,10.94,0,21.81.58,32.66s1.32,21.67,2.22,32.46c1.09,10.79,2.07,21.57,3.55,32.3q2,16.13,4.62,32.15l2.65,16,3,16,.7,4,.8,4,1.62,8c1.1,5.32,2.11,10.65,3.31,15.84s2.68,10.38,4.32,15.49,3.38,10.2,5.46,15.16a136.69,136.69,0,0,0,6.83,14.62c.63,1.2,1.28,2.37,2,3.52s1.44,2.27,2.19,3.39a25.19,25.19,0,0,0,5.37,6l-.06,0,.2-.4-.12.43v0l-.05,0a24,24,0,0,1-6.51-5.12c-.93-1-1.88-2-2.73-3.13s-1.75-2.15-2.57-3.27A124.68,124.68,0,0,1,478,945c-2.64-4.87-4.94-9.92-7.1-15s-3.91-10.38-5.62-15.66c-.78-2.66-1.61-5.34-2.3-8l-2-8-2-8-1-4-.88-4-3.35-16.11L451,850c-1.59-10.86-3.13-21.73-4.14-32.66-.58-5.46-.88-11-1.28-16.42s-.52-11-.72-16.46c-.11-2.74-.07-5.49-.11-8.23s-.08-5.49,0-8.23c.17-5.5.28-11,.64-16.46C446.2,740.63,447.19,729.67,449.53,719Z"></path><path class="cls-12" d="M1655.57,1047.66H25.93A25.93,25.93,0,0,1,0,1021.73H0A25.93,25.93,0,0,1,25.93,995.8H1655.57a25.93,25.93,0,0,1,25.93,25.93h0A25.93,25.93,0,0,1,1655.57,1047.66Z"></path><path class="cls-4" d="M663.17,998.84h407.46V979.66H672.31c-2.79,0-12.5,12.86-12.5,12.86-2.16,2.49-.31,6.27,3.28,6.32Z"></path><path class="cls-2" d="M903.61,996.63h322.78a30.41,30.41,0,0,0,29.28-22.17l76.21-270.93a14.12,14.12,0,0,0-13.59-17.94H991.85A30.67,30.67,0,0,0,962.33,708L887.21,975A17,17,0,0,0,903.61,996.63Z"></path><path class="cls-4" d="M903.71,998.84h323.86a30.06,30.06,0,0,0,28.94-21.93l75.75-269.26a10,10,0,0,0-9.6-12.67H998.8a30.08,30.08,0,0,0-28.95,21.93L894.11,986.17A10,10,0,0,0,903.71,998.84Z"></path><path class="cls-4" d="M517.57,198.87H407.37a8.79,8.79,0,0,0-8.79,8.79v65.51a8.79,8.79,0,0,0,8.79,8.78h31.86l34.7,23.92L473.85,282h43.72a8.79,8.79,0,0,0,8.79-8.78V207.66A8.79,8.79,0,0,0,517.57,198.87Z"></path><path class="cls-2" d="M453.84,224.61H435.4a14.17,14.17,0,0,0-8.12,25.78v10.55l8-8h18.57a14.18,14.18,0,1,0,0-28.35Z"></path><path class="cls-2" d="M495.15,253.07a2.63,2.63,0,0,1-2.63-2.63V232.36l-4.6,3.31a2.63,2.63,0,0,1-3.07-4.26l8.76-6.3a2.62,2.62,0,0,1,4.16,2.13v23.2A2.62,2.62,0,0,1,495.15,253.07Z"></path><path class="cls-3" d="M336.11,296.2H236.54a8.78,8.78,0,0,0-8.77,8.78v65.46a8.78,8.78,0,0,0,8.77,8.78h31.84l17.82,24.83L303,379.22h33.14a8.78,8.78,0,0,0,8.78-8.78V305A8.78,8.78,0,0,0,336.11,296.2Z"></path><path class="cls-2" d="M268,321.12c-13.06,0-23.64,7.2-23.64,16.08,0,5.38,3.88,10.14,9.85,13.06v10.27l7.77-7.78a33.63,33.63,0,0,0,6,.53c13.06,0,23.65-7.2,23.65-16.08S281.08,321.12,268,321.12Z"></path><path class="cls-2" d="M304.63,314.8c13.06,0,23.65,7.2,23.65,16.08,0,5.38-3.89,10.14-9.85,13.06v10.27l-7.78-7.78a33.63,33.63,0,0,1-6,.53c-13.05,0-23.64-7.2-23.64-16.08S291.58,314.8,304.63,314.8Z"></path><path class="cls-3" d="M281,330.84c0-8.88,10.59-16.08,23.65-16.08a30.94,30.94,0,0,1,15.09,3.7,30,30,0,0,0-16.83-4.79c-13.06,0-23.65,7.2-23.65,16.08,0,5,3.33,9.43,8.56,12.38C283.6,339.23,281,335.24,281,330.84Z"></path><path class="cls-2" d="M479.24,391.08H383.71a11,11,0,0,0-11,11v61.32a11,11,0,0,0,11,11h8.79a2.18,2.18,0,0,1,1.75.9l0,21.48a2.15,2.15,0,0,0,3.53-.05l29.9-21.38a2.16,2.16,0,0,1,1.78-.95h49.81a11,11,0,0,0,10.95-10.95V402A11,11,0,0,0,479.24,391.08Z"></path><path class="cls-16" d="M460,446.15a2.76,2.76,0,0,1-2.76-2.76v-19l-4.84,3.48a2.76,2.76,0,1,1-3.22-4.48l9.2-6.62a2.76,2.76,0,0,1,4.38,2.24v24.39A2.77,2.77,0,0,1,460,446.15Z"></path><path class="cls-16" d="M437.53,424.13c0-5.45-4.35-10.83-9.7-10.83h-.95a11.39,11.39,0,0,0-9.75,5.77.5.5,0,0,1-.9,0,11.39,11.39,0,0,0-9.75-5.77h-1c-5.36,0-9.7,5.38-9.7,10.83,0,14.64,16,23.5,20.31,25.63h1.07C421.53,447.63,437.53,438.77,437.53,424.13Z"></path><rect class="cls-8" x="1452.99" y="624.95" width="118.35" height="77.76" rx="8.72"></rect><path class="cls-2" d="M1536.14,663.49,1565,634.64a2.54,2.54,0,0,0-3.6-3.59l-30.2,30.2a2.32,2.32,0,0,0-.88.88l-12.56,12.56a7.91,7.91,0,0,1-11.17,0l-43.65-43.64a2.54,2.54,0,0,0-3.6,3.59l28.85,28.85-28.85,28.84a2.55,2.55,0,0,0,0,3.6,2.56,2.56,0,0,0,3.6,0l28.85-28.85,11.2,11.21a13,13,0,0,0,18.36,0l11.21-11.21,28.84,28.85a2.56,2.56,0,0,0,3.6,0,2.55,2.55,0,0,0,0-3.6Z"></path><path class="cls-4" d="M659.31,440.86l12.83,2.57c0-60.3,45.6-114.48,96.92-114.48a80.55,80.55,0,0,1,33.56,7.33.37.37,0,0,0,.4-.61l-2.65-2.36a40.15,40.15,0,0,0-6-4.5c-8.07-4.84-17.79-6.27-30.41-6.27C705.53,322.54,659.31,373.49,659.31,440.86Z"></path><path class="cls-4" d="M674.45,484c0,41.93,31.7,79.61,67.39,79.61a56.39,56.39,0,0,0,7-.46,1.79,1.79,0,0,1,0-.23c0-4.17,6.49-7.56,14.5-7.56s14.51,3.39,14.51,7.56-6.49,7.56-14.51,7.56c-5.19,0-9.73-1.43-12.29-3.56a59.37,59.37,0,0,1-12.77,1.15c-40.6,0-72.74-35.44-72.74-82.28Z"></path><path class="cls-4" d="M648.18,467.62c0,13.91,6.1,41.52,11.28,45.52,6.28,4.85,15.63,2.76,17.17,2.17,9.13-3.51,16-21.35,16-47.69s-6.43-45.73-16-47.69c-.91-.19-13.52-3.39-18.59,3.36C649.78,434.3,648.18,452.11,648.18,467.62Z"></path><ellipse class="cls-4" cx="663.89" cy="467.64" rx="16.01" ry="47.69"></ellipse><ellipse class="cls-8" cx="662.9" cy="467.64" rx="13.59" ry="41.54"></ellipse></g></g></svg>